<svg xmlns="http://www.w3.org/2000/svg" viewBox="0 0 520 420">
  <defs><linearGradient id="g8" x1="0" x2="1" y1="0" y2="1"><stop stop-color="#684dff"/><stop offset="1" stop-color="#e044aa"/></linearGradient><filter id="ds"><feDropShadow dx="0" dy="16" stdDeviation="16" flood-opacity=".32"/></filter></defs>
  <rect width="520" height="420" rx="32" fill="#111827"/>
  <circle cx="191" cy="146" r="80" fill="#684dff" opacity=".18"/>
  <circle cx="380" cy="248" r="100" fill="#e044aa" opacity=".18"/>
  <g filter="url(#ds)" transform="translate(160 54)">
    <rect x="18" y="82" width="164" height="214" rx="44" fill="url(#g8)"/>
    <circle cx="100" cy="72" r="62" fill="#f8fafc"/>
    <circle cx="78" cy="66" r="10" fill="#111827"/>
    <circle cx="122" cy="66" r="10" fill="#111827"/>
    <path d="M72 99 Q100 120 130 99" stroke="#111827" stroke-width="8" fill="none" stroke-linecap="round"/>
    <rect x="-28" y="130" width="74" height="28" rx="14" fill="#f8fafc" transform="rotate(-28 9 144)"/>
    <rect x="154" y="130" width="74" height="28" rx="14" fill="#f8fafc" transform="rotate(28 191 144)"/>
    <rect x="48" y="284" width="38" height="74" rx="19" fill="#f8fafc"/>
    <rect x="114" y="284" width="38" height="74" rx="19" fill="#f8fafc"/>
    <path d="M56 176 H144" stroke="#fff" stroke-opacity=".7" stroke-width="9" stroke-linecap="round"/>
    <path d="M70 211 H130" stroke="#fff" stroke-opacity=".45" stroke-width="9" stroke-linecap="round"/>
  </g>
</svg>
