<svg xmlns="http://www.w3.org/2000/svg" viewBox="0 0 420 320" role="img" aria-labelledby="title desc">
  <title id="title">Tiburon Omega</title>
  <desc id="desc">Mascota tiburon de OmegaFiguresWeb con estilo moderno.</desc>
  <defs>
    <linearGradient id="body" x1="70" y1="70" x2="330" y2="250" gradientUnits="userSpaceOnUse">
      <stop stop-color="#74e6ff"/>
      <stop offset=".45" stop-color="#3a8dff"/>
      <stop offset="1" stop-color="#684dff"/>
    </linearGradient>
    <linearGradient id="belly" x1="170" y1="150" x2="290" y2="270" gradientUnits="userSpaceOnUse">
      <stop stop-color="#f8fbff"/>
      <stop offset="1" stop-color="#bfeaff"/>
    </linearGradient>
    <linearGradient id="fin" x1="120" y1="40" x2="260" y2="130" gradientUnits="userSpaceOnUse">
      <stop stop-color="#e044aa"/>
      <stop offset="1" stop-color="#684dff"/>
    </linearGradient>
    <filter id="shadow" x="-20%" y="-20%" width="140%" height="150%" color-interpolation-filters="sRGB">
      <feDropShadow dx="0" dy="18" stdDeviation="16" flood-color="#050915" flood-opacity=".35"/>
    </filter>
  </defs>
  <ellipse cx="212" cy="276" rx="122" ry="22" fill="#07101d" opacity=".24"/>
  <g filter="url(#shadow)">
    <path fill="url(#fin)" d="M164 91c18-43 52-64 83-74 9-3 17 6 13 15l-37 82z"/>
    <path fill="#2667d8" d="M83 156 22 96c-9-9-2-25 11-23 41 7 74 24 98 53z"/>
    <path fill="#2667d8" d="M84 176 20 235c-9 8-3 24 10 22 42-6 77-23 102-51z"/>
    <path fill="url(#body)" d="M74 164c48-70 138-99 221-73 35 11 66 32 91 63 5 6 5 15 0 21-25 31-56 52-91 63-83 26-173-3-221-74z"/>
    <path fill="url(#belly)" d="M148 191c52 43 127 45 192 5-23 34-57 56-97 62-57 9-110-14-145-57 15 1 31-2 50-10z" opacity=".95"/>
    <path fill="#1b4ebd" d="M287 94c29 13 54 33 75 59-24-7-53-9-85-3-11-25-8-43 10-56z" opacity=".38"/>
    <path fill="#9befff" d="M96 155c45-48 115-71 184-56-51 2-105 24-150 65-12 11-25 10-34-9z" opacity=".45"/>
    <circle cx="296" cy="141" r="18" fill="#fff"/>
    <circle cx="301" cy="143" r="9" fill="#0c1728"/>
    <circle cx="304" cy="139" r="3" fill="#fff"/>
    <path fill="#0c1728" d="M311 182c-18 20-48 22-70 5-4-3-3-9 2-10 24 9 44 7 62-4 5-3 10 5 6 9z"/>
    <path fill="#fff" d="M251 189h14l-7 14zm22 4h13l-7 13zm-43-8h13l-6 13z"/>
    <path fill="#684dff" d="M167 224c-4 33-18 57-42 72-9 6-20-4-15-14l38-76z"/>
    <path fill="#e044aa" d="M188 89c13-25 31-42 54-52l-22 49c-12-2-22-1-32 3z" opacity=".5"/>
  </g>
</svg>
